<mxfile host="65bd71144e">
    <diagram id="fNDOsW1qVBvkSl3uogUd" name="Water Flow">
        <mxGraphModel dx="1427" dy="636" grid="1" gridSize="10" guides="1" tooltips="1" connect="1" arrows="1" fold="1" page="1" pageScale="1" pageWidth="827" pageHeight="1169" math="0" shadow="0">
            <root>
                <mxCell id="0"/>
                <mxCell id="1" parent="0"/>
                <mxCell id="21" style="edgeStyle=none;html=1;entryX=0.5;entryY=0;entryDx=0;entryDy=0;fontSize=18;strokeWidth=2;" parent="1" source="3" target="12" edge="1">
                    <mxGeometry relative="1" as="geometry"/>
                </mxCell>
                <mxCell id="3" value="Mulai" style="ellipse;whiteSpace=wrap;html=1;aspect=fixed;strokeWidth=2;fontSize=18;fillColor=#f8cecc;strokeColor=none;" parent="1" vertex="1">
                    <mxGeometry x="270" y="10" width="100" height="100" as="geometry"/>
                </mxCell>
                <mxCell id="38" value="" style="edgeStyle=none;html=1;strokeWidth=3;entryX=0.5;entryY=0;entryDx=0;entryDy=0;" edge="1" parent="1" source="12" target="27">
                    <mxGeometry relative="1" as="geometry"/>
                </mxCell>
                <mxCell id="12" value="&lt;div style=&quot;font-family: &amp;quot;Droid Sans Mono&amp;quot;, &amp;quot;monospace&amp;quot;, monospace; line-height: 19px;&quot;&gt;&lt;div style=&quot;&quot;&gt;&lt;div style=&quot;line-height: 19px;&quot;&gt;&lt;div style=&quot;&quot;&gt;&lt;br&gt;&lt;/div&gt;&lt;/div&gt;&lt;/div&gt;&lt;/div&gt;" style="rounded=1;whiteSpace=wrap;html=1;strokeWidth=2;fontSize=14;arcSize=4;fillColor=#d5e8d4;strokeColor=none;align=center;" parent="1" vertex="1">
                    <mxGeometry x="50" y="150" width="540" height="740" as="geometry"/>
                </mxCell>
                <mxCell id="19" value="variabel global" style="rounded=1;whiteSpace=wrap;html=1;strokeWidth=2;fontSize=18;fillColor=#fff2cc;strokeColor=none;fontColor=default;" parent="1" vertex="1">
                    <mxGeometry x="242.5" y="170" width="155" height="40" as="geometry"/>
                </mxCell>
                <mxCell id="22" value="&lt;div style=&quot;font-family: &amp;quot;Droid Sans Mono&amp;quot;, &amp;quot;monospace&amp;quot;, monospace; line-height: 19px;&quot;&gt;&lt;div style=&quot;&quot;&gt;&lt;div style=&quot;line-height: 19px;&quot;&gt;&lt;div style=&quot;&quot;&gt;&lt;div style=&quot;color: rgb(204, 204, 204); background-color: rgb(31, 31, 31); line-height: 19px;&quot;&gt;&lt;div&gt;&lt;span style=&quot;color: #c586c0;&quot;&gt;#include&lt;/span&gt;&lt;span style=&quot;color: #569cd6;&quot;&gt; &lt;/span&gt;&lt;span style=&quot;color: #ce9178;&quot;&gt;&amp;lt;ESP8266WiFi.h&amp;gt;&lt;/span&gt;&lt;/div&gt;&lt;div&gt;&lt;span style=&quot;color: #c586c0;&quot;&gt;#include&lt;/span&gt;&lt;span style=&quot;color: #569cd6;&quot;&gt; &lt;/span&gt;&lt;span style=&quot;color: #ce9178;&quot;&gt;&amp;lt;PubSubClient.h&amp;gt;&lt;/span&gt;&lt;/div&gt;&lt;/div&gt;&lt;/div&gt;&lt;/div&gt;&lt;/div&gt;&lt;/div&gt;" style="rounded=1;whiteSpace=wrap;html=1;strokeWidth=2;fontSize=14;arcSize=4;fillColor=#1f1f1f;strokeColor=none;align=center;fontColor=#333333;labelBorderColor=none;" vertex="1" parent="1">
                    <mxGeometry x="84.62" y="240" width="230.77" height="70" as="geometry"/>
                </mxCell>
                <mxCell id="23" value="&lt;div style=&quot;font-family: &amp;quot;Droid Sans Mono&amp;quot;, &amp;quot;monospace&amp;quot;, monospace; line-height: 19px;&quot;&gt;&lt;div style=&quot;&quot;&gt;&lt;div style=&quot;line-height: 19px;&quot;&gt;&lt;div style=&quot;&quot;&gt;&lt;div style=&quot;color: rgb(204, 204, 204); background-color: rgb(31, 31, 31); line-height: 19px;&quot;&gt;&lt;div style=&quot;line-height: 19px;&quot;&gt;&lt;div&gt;&lt;span style=&quot;color: #4ec9b0;&quot;&gt;&amp;nbsp;String&lt;/span&gt;&lt;/div&gt;&lt;div&gt;    &lt;span style=&quot;color: #9cdcfe;&quot;&gt;&amp;nbsp; &amp;nbsp; ssid&lt;/span&gt;, &lt;span style=&quot;color: #9cdcfe;&quot;&gt;password&lt;/span&gt;,&amp;nbsp; &amp;nbsp; &amp;nbsp; &amp;nbsp;&amp;nbsp;&lt;/div&gt;&lt;div&gt;&lt;span style=&quot;color: #9cdcfe;&quot;&gt;&amp;nbsp; &amp;nbsp; mqtt_server&lt;/span&gt;,&lt;/div&gt;&lt;div&gt;    &lt;span style=&quot;color: #9cdcfe;&quot;&gt;&amp;nbsp; &amp;nbsp; mqtt_topic_flow_rate&lt;/span&gt;,&lt;/div&gt;&lt;div&gt;    &lt;span style=&quot;color: #9cdcfe;&quot;&gt;&amp;nbsp; &amp;nbsp; mqtt_topic_flow_total&lt;/span&gt;,&lt;/div&gt;&lt;div&gt;    &lt;span style=&quot;color: #9cdcfe;&quot;&gt;&amp;nbsp; &amp;nbsp; mqtt_username&lt;/span&gt;,&amp;nbsp;&lt;/div&gt;&lt;div&gt;&lt;span style=&quot;color: #9cdcfe;&quot;&gt;&amp;nbsp; &amp;nbsp; mqtt_password&lt;/span&gt;;&lt;/div&gt;&lt;br&gt;&lt;div&gt;&lt;span style=&quot;color: #569cd6;&quot;&gt;&amp;nbsp;int&lt;/span&gt; &lt;span style=&quot;color: #9cdcfe;&quot;&gt;pulseCount&lt;/span&gt;;&lt;/div&gt;&lt;div&gt;&lt;span style=&quot;color: #569cd6;&quot;&gt;&amp;nbsp;float&lt;/span&gt; &lt;/div&gt;&lt;div&gt;    &lt;span style=&quot;color: #9cdcfe;&quot;&gt;&amp;nbsp; &amp;nbsp; flowRate&lt;/span&gt;, &lt;span style=&quot;color: #9cdcfe;&quot;&gt;duration&lt;/span&gt;,&lt;/div&gt;&lt;div&gt;    &lt;span style=&quot;color: #9cdcfe;&quot;&gt;&amp;nbsp; &amp;nbsp; totalLiters&lt;/span&gt;;&lt;/div&gt;&lt;br&gt;&lt;div&gt;&lt;span style=&quot;color: #4ec9b0;&quot;&gt;&amp;nbsp;WiFiClient&lt;/span&gt; &lt;/div&gt;&lt;div&gt;    &lt;span style=&quot;color: #9cdcfe;&quot;&gt;&amp;nbsp; &amp;nbsp; espClient&lt;/span&gt;;&lt;/div&gt;&lt;div&gt;&lt;span style=&quot;color: #4ec9b0;&quot;&gt;&amp;nbsp;PubSubClient&lt;/span&gt;&lt;/div&gt;&lt;div&gt;    &lt;span style=&quot;color: #9cdcfe;&quot;&gt;&amp;nbsp; &amp;nbsp; client&lt;/span&gt;(&lt;span style=&quot;color: #9cdcfe;&quot;&gt;espClient&lt;/span&gt;);&lt;/div&gt;&lt;/div&gt;&lt;/div&gt;&lt;/div&gt;&lt;/div&gt;&lt;/div&gt;&lt;/div&gt;" style="rounded=1;whiteSpace=wrap;html=1;strokeWidth=2;fontSize=14;arcSize=4;fillColor=#1f1f1f;strokeColor=none;align=left;fontColor=#333333;labelBorderColor=none;" vertex="1" parent="1">
                    <mxGeometry x="80" y="330" width="240" height="350" as="geometry"/>
                </mxCell>
                <mxCell id="24" value="&lt;div style=&quot;font-family: &amp;quot;Droid Sans Mono&amp;quot;, &amp;quot;monospace&amp;quot;, monospace; line-height: 19px;&quot;&gt;&lt;div style=&quot;&quot;&gt;&lt;div style=&quot;line-height: 19px;&quot;&gt;&lt;div style=&quot;&quot;&gt;&lt;div style=&quot;color: rgb(204, 204, 204); background-color: rgb(31, 31, 31); line-height: 19px;&quot;&gt;&lt;div style=&quot;line-height: 19px;&quot;&gt;&lt;div style=&quot;line-height: 19px;&quot;&gt;&lt;div&gt;&lt;span style=&quot;color: #569cd6;&quot;&gt;&amp;nbsp; void&lt;/span&gt; &lt;span style=&quot;color: #569cd6;&quot;&gt;IRAM_ATTR&lt;/span&gt;&lt;/div&gt;&lt;div&gt;&lt;span style=&quot;color: #dcdcaa;&quot;&gt;&amp;nbsp; &amp;nbsp; &amp;nbsp;countPulse&lt;/span&gt;() {&lt;/div&gt;&lt;div&gt;&lt;span style=&quot;color: #9cdcfe;&quot;&gt;&amp;nbsp; &amp;nbsp; &amp;nbsp;pulseCount&lt;/span&gt;&lt;span style=&quot;color: #d4d4d4;&quot;&gt;++&lt;/span&gt;;&lt;/div&gt;&lt;div style=&quot;&quot;&gt;&amp;nbsp; }&lt;/div&gt;&lt;/div&gt;&lt;/div&gt;&lt;/div&gt;&lt;/div&gt;&lt;/div&gt;&lt;/div&gt;&lt;/div&gt;" style="rounded=1;whiteSpace=wrap;html=1;strokeWidth=2;fontSize=14;arcSize=4;fillColor=#1f1f1f;strokeColor=none;align=left;fontColor=#333333;labelBorderColor=none;" vertex="1" parent="1">
                    <mxGeometry x="350" y="240" width="210" height="110" as="geometry"/>
                </mxCell>
                <mxCell id="26" value="&lt;div style=&quot;font-family: &amp;quot;Droid Sans Mono&amp;quot;, &amp;quot;monospace&amp;quot;, monospace; line-height: 19px;&quot;&gt;&lt;div style=&quot;&quot;&gt;&lt;div style=&quot;line-height: 19px;&quot;&gt;&lt;div style=&quot;&quot;&gt;&lt;div style=&quot;color: rgb(204, 204, 204); background-color: rgb(31, 31, 31); line-height: 19px;&quot;&gt;&lt;div style=&quot;line-height: 19px;&quot;&gt;&lt;div style=&quot;line-height: 19px;&quot;&gt;&lt;div style=&quot;line-height: 19px;&quot;&gt;&lt;div&gt;&lt;span style=&quot;color: #569cd6;&quot;&gt;&amp;nbsp;void&lt;/span&gt; &lt;span style=&quot;color: #dcdcaa;&quot;&gt;get_data&lt;/span&gt;(){&lt;/div&gt;&lt;div&gt;    &lt;span style=&quot;color: #9cdcfe;&quot;&gt;&amp;nbsp; &amp;nbsp; pulseCount&lt;/span&gt; &lt;span style=&quot;color: #d4d4d4;&quot;&gt;=&lt;/span&gt; &lt;span style=&quot;color: #b5cea8;&quot;&gt;0&lt;/span&gt;;&lt;/div&gt;&lt;div&gt;    &lt;span style=&quot;color: #9cdcfe;&quot;&gt;&amp;nbsp; &amp;nbsp; duration&lt;/span&gt; &lt;span style=&quot;color: #d4d4d4;&quot;&gt;=&lt;/span&gt; &lt;span style=&quot;color: #b5cea8;&quot;&gt;10000&lt;/span&gt;;&lt;/div&gt;&lt;div&gt;    &lt;span style=&quot;color: #dcdcaa;&quot;&gt;&amp;nbsp; &amp;nbsp; delay&lt;/span&gt;(&lt;span style=&quot;color: #9cdcfe;&quot;&gt;duration&lt;/span&gt;);&lt;/div&gt;&lt;br&gt;&lt;div&gt;    &lt;span style=&quot;color: #9cdcfe;&quot;&gt;&amp;nbsp; &amp;nbsp; flowRate&lt;/span&gt; &lt;span style=&quot;color: #d4d4d4;&quot;&gt;=&lt;/span&gt; (&lt;/div&gt;&lt;div&gt;        &lt;span style=&quot;color: #9cdcfe;&quot;&gt;&amp;nbsp; &amp;nbsp; &lt;span style=&quot;white-space: pre;&quot;&gt;&#9;&lt;/span&gt;pulseCount&lt;/span&gt; &lt;span style=&quot;color: #d4d4d4;&quot;&gt;/&lt;/span&gt;&amp;nbsp;&lt;/div&gt;&lt;div&gt;&lt;span style=&quot;color: #b5cea8;&quot;&gt;&lt;span style=&quot;white-space: pre;&quot;&gt;&#9;&lt;/span&gt;7.5&lt;/span&gt;);&lt;/div&gt;&lt;div&gt;    &lt;span style=&quot;color: #9cdcfe;&quot;&gt;&amp;nbsp; &amp;nbsp;&amp;nbsp;&lt;/span&gt;&lt;/div&gt;&lt;div&gt;&lt;span style=&quot;color: #9cdcfe;&quot;&gt;&amp;nbsp; &amp;nbsp; totalLiters&lt;/span&gt; &lt;span style=&quot;color: #d4d4d4;&quot;&gt;+=&lt;/span&gt; (&lt;/div&gt;&lt;div&gt;        &lt;span style=&quot;color: #9cdcfe;&quot;&gt;&amp;nbsp; &amp;nbsp; &lt;span style=&quot;white-space: pre;&quot;&gt;&#9;&lt;/span&gt;flowRate&lt;/span&gt; &lt;span style=&quot;color: #d4d4d4;&quot;&gt;*&lt;/span&gt; (&lt;/div&gt;&lt;div&gt;        &lt;span style=&quot;color: #9cdcfe;&quot;&gt;&amp;nbsp; &amp;nbsp; &lt;span style=&quot;white-space: pre;&quot;&gt;&#9;&lt;/span&gt;duration&lt;/span&gt; &lt;span style=&quot;color: #d4d4d4;&quot;&gt;/&lt;/span&gt;&amp;nbsp;&lt;/div&gt;&lt;div&gt;&lt;span style=&quot;color: #b5cea8;&quot;&gt;&lt;span style=&quot;white-space: pre;&quot;&gt;&#9;&lt;/span&gt;60000.0&lt;/span&gt;)&lt;/div&gt;&lt;div&gt;&amp;nbsp; &amp;nbsp; );&lt;/div&gt;&lt;div&gt;&amp;nbsp;}&lt;/div&gt;&lt;/div&gt;&lt;/div&gt;&lt;/div&gt;&lt;/div&gt;&lt;/div&gt;&lt;/div&gt;&lt;/div&gt;&lt;/div&gt;" style="rounded=1;whiteSpace=wrap;html=1;strokeWidth=2;fontSize=14;arcSize=4;fillColor=#1f1f1f;strokeColor=none;align=left;fontColor=#333333;labelBorderColor=none;" vertex="1" parent="1">
                    <mxGeometry x="350" y="370" width="210" height="310" as="geometry"/>
                </mxCell>
                <mxCell id="27" value="&lt;div style=&quot;font-family: &amp;quot;Droid Sans Mono&amp;quot;, &amp;quot;monospace&amp;quot;, monospace; line-height: 19px;&quot;&gt;&lt;div style=&quot;&quot;&gt;&lt;div style=&quot;line-height: 19px;&quot;&gt;&lt;div style=&quot;&quot;&gt;&lt;br&gt;&lt;/div&gt;&lt;/div&gt;&lt;/div&gt;&lt;/div&gt;" style="rounded=1;whiteSpace=wrap;html=1;strokeWidth=2;fontSize=14;arcSize=4;fillColor=#d5e8d4;strokeColor=none;align=center;" vertex="1" parent="1">
                    <mxGeometry x="110" y="925" width="420" height="255" as="geometry"/>
                </mxCell>
                <mxCell id="28" value="setup" style="rounded=1;whiteSpace=wrap;html=1;strokeWidth=2;fontSize=18;fillColor=#fff2cc;strokeColor=none;fontColor=default;" vertex="1" parent="1">
                    <mxGeometry x="276.25" y="950" width="87.5" height="40" as="geometry"/>
                </mxCell>
                <mxCell id="29" value="&lt;div style=&quot;font-family: &amp;quot;Droid Sans Mono&amp;quot;, &amp;quot;monospace&amp;quot;, monospace; line-height: 19px;&quot;&gt;&lt;div style=&quot;&quot;&gt;&lt;div style=&quot;line-height: 19px;&quot;&gt;&lt;div style=&quot;&quot;&gt;&lt;div style=&quot;color: rgb(204, 204, 204); background-color: rgb(31, 31, 31); line-height: 19px;&quot;&gt;&lt;div style=&quot;line-height: 19px;&quot;&gt;&lt;div style=&quot;line-height: 19px;&quot;&gt;&lt;div style=&quot;line-height: 19px;&quot;&gt;&lt;div style=&quot;line-height: 19px;&quot;&gt;&lt;div style=&quot;line-height: 19px;&quot;&gt;&lt;div&gt;&lt;span style=&quot;color: #569cd6;&quot;&gt;&amp;nbsp;void&lt;/span&gt; &lt;span style=&quot;color: #dcdcaa;&quot;&gt;setup&lt;/span&gt;() {&lt;/div&gt;&lt;div&gt;&lt;span style=&quot;color: #9cdcfe;&quot;&gt;&amp;nbsp; &amp;nbsp; Serial&lt;/span&gt;.&lt;span style=&quot;color: #dcdcaa;&quot;&gt;begin&lt;/span&gt;(&lt;span style=&quot;color: #b5cea8;&quot;&gt;9600&lt;/span&gt;);&lt;/div&gt;&lt;div&gt;&lt;span style=&quot;color: #dcdcaa;&quot;&gt;&amp;nbsp; &amp;nbsp; setup_sensor&lt;/span&gt;();&lt;/div&gt;&lt;div&gt;&lt;div style=&quot;line-height: 19px;&quot;&gt;&lt;span style=&quot;color: #9cdcfe;&quot;&gt;&amp;nbsp; &amp;nbsp; WiFi&lt;/span&gt;.&lt;span style=&quot;color: #dcdcaa;&quot;&gt;begin&lt;/span&gt;(&lt;span style=&quot;color: #9cdcfe;&quot;&gt;ssid&lt;/span&gt;, &lt;span style=&quot;color: #9cdcfe;&quot;&gt;password&lt;/span&gt;);&lt;/div&gt;&lt;/div&gt;&lt;div&gt;&lt;span style=&quot;color: #9cdcfe;&quot;&gt;&amp;nbsp; &amp;nbsp; client&lt;/span&gt;.&lt;span style=&quot;color: #dcdcaa;&quot;&gt;setServer&lt;/span&gt;(&lt;span style=&quot;color: #9cdcfe;&quot;&gt;mqtt_server&lt;/span&gt;, &lt;span style=&quot;color: #b5cea8;&quot;&gt;1883&lt;/span&gt;);&lt;/div&gt;&lt;div&gt;&amp;nbsp;}&lt;/div&gt;&lt;/div&gt;&lt;/div&gt;&lt;/div&gt;&lt;/div&gt;&lt;/div&gt;&lt;/div&gt;&lt;/div&gt;&lt;/div&gt;&lt;/div&gt;&lt;/div&gt;" style="rounded=1;whiteSpace=wrap;html=1;strokeWidth=2;fontSize=14;arcSize=4;fillColor=#1f1f1f;strokeColor=none;align=left;fontColor=#333333;labelBorderColor=none;" vertex="1" parent="1">
                    <mxGeometry x="146" y="1009" width="348" height="141" as="geometry"/>
                </mxCell>
                <mxCell id="30" value="&lt;div style=&quot;font-family: &amp;quot;Droid Sans Mono&amp;quot;, &amp;quot;monospace&amp;quot;, monospace; line-height: 19px;&quot;&gt;&lt;div style=&quot;&quot;&gt;&lt;div style=&quot;line-height: 19px;&quot;&gt;&lt;div style=&quot;&quot;&gt;&lt;div style=&quot;color: rgb(204, 204, 204); background-color: rgb(31, 31, 31); line-height: 19px;&quot;&gt;&lt;div style=&quot;line-height: 19px;&quot;&gt;&lt;div style=&quot;line-height: 19px;&quot;&gt;&lt;div style=&quot;line-height: 19px;&quot;&gt;&lt;div&gt;&lt;span style=&quot;color: #569cd6;&quot;&gt;&amp;nbsp;void&lt;/span&gt; &lt;span style=&quot;color: #dcdcaa;&quot;&gt;setup_sensor&lt;/span&gt;() {&lt;/div&gt;&lt;div&gt;    &lt;span style=&quot;color: #dcdcaa;&quot;&gt;&amp;nbsp; &amp;nbsp; pinMode&lt;/span&gt;(&lt;span style=&quot;color: #9cdcfe;&quot;&gt;D2&lt;/span&gt;, &lt;span style=&quot;color: #569cd6;&quot;&gt;INPUT&lt;/span&gt;);&lt;/div&gt;&lt;div&gt;    &lt;span style=&quot;color: #dcdcaa;&quot;&gt;&amp;nbsp; &amp;nbsp; attachInterrupt&lt;/span&gt;(&lt;/div&gt;&lt;div&gt;        &lt;span style=&quot;color: #569cd6;&quot;&gt;&amp;nbsp; &amp;nbsp; &lt;span style=&quot;white-space: pre;&quot;&gt;&#9;&lt;/span&gt;digitalPinToInterrupt&lt;/span&gt;(&lt;span style=&quot;color: #9cdcfe;&quot;&gt;D2&lt;/span&gt;),&lt;/div&gt;&lt;div&gt;        &lt;span style=&quot;color: #dcdcaa;&quot;&gt;&amp;nbsp; &amp;nbsp; &lt;span style=&quot;white-space: pre;&quot;&gt;&#9;&lt;/span&gt;countPulse&lt;/span&gt;, &lt;span style=&quot;color: #569cd6;&quot;&gt;RISING&lt;/span&gt;&lt;/div&gt;&lt;div&gt;&amp;nbsp; &amp;nbsp; );&lt;/div&gt;&lt;div&gt;&amp;nbsp;}&lt;/div&gt;&lt;/div&gt;&lt;/div&gt;&lt;/div&gt;&lt;/div&gt;&lt;/div&gt;&lt;/div&gt;&lt;/div&gt;&lt;/div&gt;" style="rounded=1;whiteSpace=wrap;html=1;strokeWidth=2;fontSize=14;arcSize=4;fillColor=#1f1f1f;strokeColor=none;align=left;fontColor=#333333;labelBorderColor=none;" vertex="1" parent="1">
                    <mxGeometry x="80" y="710" width="480" height="150" as="geometry"/>
                </mxCell>
                <mxCell id="32" style="edgeStyle=none;html=1;entryX=1;entryY=0.75;entryDx=0;entryDy=0;strokeWidth=3;fillColor=#f8cecc;strokeColor=#b85450;" edge="1" parent="1">
                    <mxGeometry relative="1" as="geometry">
                        <mxPoint x="550" y="1073" as="sourcePoint"/>
                        <mxPoint x="560" y="817.5" as="targetPoint"/>
                        <Array as="points">
                            <mxPoint x="600" y="1073"/>
                            <mxPoint x="600" y="818"/>
                        </Array>
                    </mxGeometry>
                </mxCell>
                <mxCell id="33" value="" style="endArrow=none;html=1;strokeWidth=3;fillColor=#f8cecc;strokeColor=#b85450;" edge="1" parent="1">
                    <mxGeometry width="50" height="50" relative="1" as="geometry">
                        <mxPoint x="559" y="1073" as="sourcePoint"/>
                        <mxPoint x="309" y="1073" as="targetPoint"/>
                    </mxGeometry>
                </mxCell>
                <mxCell id="36" value="" style="endArrow=none;html=1;strokeWidth=3;fillColor=#dae8fc;strokeColor=#6c8ebf;" edge="1" parent="1">
                    <mxGeometry width="50" height="50" relative="1" as="geometry">
                        <mxPoint x="590" y="804" as="sourcePoint"/>
                        <mxPoint x="306" y="804" as="targetPoint"/>
                    </mxGeometry>
                </mxCell>
                <mxCell id="37" style="edgeStyle=none;html=1;entryX=1;entryY=0.5;entryDx=0;entryDy=0;strokeWidth=3;fillColor=#dae8fc;strokeColor=#6c8ebf;" edge="1" parent="1" target="24">
                    <mxGeometry relative="1" as="geometry">
                        <mxPoint x="551" y="804.5" as="sourcePoint"/>
                        <mxPoint x="561" y="549" as="targetPoint"/>
                        <Array as="points">
                            <mxPoint x="601" y="804.5"/>
                            <mxPoint x="600" y="295"/>
                        </Array>
                    </mxGeometry>
                </mxCell>
                <mxCell id="39" value="&lt;div style=&quot;font-family: &amp;quot;Droid Sans Mono&amp;quot;, &amp;quot;monospace&amp;quot;, monospace; line-height: 19px;&quot;&gt;&lt;div style=&quot;&quot;&gt;&lt;div style=&quot;line-height: 19px;&quot;&gt;&lt;div style=&quot;&quot;&gt;&lt;br&gt;&lt;/div&gt;&lt;/div&gt;&lt;/div&gt;&lt;/div&gt;" style="rounded=1;whiteSpace=wrap;html=1;strokeWidth=2;fontSize=14;arcSize=4;fillColor=#d5e8d4;strokeColor=none;align=center;" vertex="1" parent="1">
                    <mxGeometry x="95" y="1210" width="450" height="400" as="geometry"/>
                </mxCell>
                <mxCell id="40" value="loop" style="rounded=1;whiteSpace=wrap;html=1;strokeWidth=2;fontSize=18;fillColor=#fff2cc;strokeColor=none;fontColor=default;" vertex="1" parent="1">
                    <mxGeometry x="276.25" y="1240" width="87.5" height="40" as="geometry"/>
                </mxCell>
                <mxCell id="41" value="&lt;div style=&quot;font-family: &amp;quot;Droid Sans Mono&amp;quot;, &amp;quot;monospace&amp;quot;, monospace; line-height: 19px;&quot;&gt;&lt;div style=&quot;&quot;&gt;&lt;div style=&quot;line-height: 19px;&quot;&gt;&lt;div style=&quot;&quot;&gt;&lt;div style=&quot;background-color: rgb(31, 31, 31); line-height: 19px;&quot;&gt;&lt;div style=&quot;line-height: 19px;&quot;&gt;&lt;div style=&quot;line-height: 19px;&quot;&gt;&lt;div style=&quot;line-height: 19px;&quot;&gt;&lt;div style=&quot;line-height: 19px;&quot;&gt;&lt;div style=&quot;line-height: 19px;&quot;&gt;&lt;div style=&quot;line-height: 19px;&quot;&gt;&lt;div style=&quot;line-height: 19px;&quot;&gt;&lt;div style=&quot;color: rgb(204, 204, 204);&quot;&gt;&lt;span style=&quot;color: #569cd6;&quot;&gt;&amp;nbsp;void&lt;/span&gt; &lt;span style=&quot;color: #dcdcaa;&quot;&gt;loop&lt;/span&gt;() {&lt;/div&gt;&lt;div style=&quot;color: rgb(204, 204, 204);&quot;&gt;  &lt;span style=&quot;color: #c586c0;&quot;&gt;&amp;nbsp; &amp;nbsp; if&lt;/span&gt; (&lt;span style=&quot;color: #d4d4d4;&quot;&gt;!&lt;/span&gt;&lt;span style=&quot;color: #9cdcfe;&quot;&gt;client&lt;/span&gt;.&lt;span style=&quot;color: #dcdcaa;&quot;&gt;connected&lt;/span&gt;()) {&lt;/div&gt;&lt;div style=&quot;color: rgb(204, 204, 204);&quot;&gt;    &lt;span style=&quot;color: #dcdcaa;&quot;&gt;&amp;nbsp; &amp;nbsp; &amp;nbsp; &amp;nbsp; reconnect&lt;/span&gt;();&lt;/div&gt;&lt;div style=&quot;color: rgb(204, 204, 204);&quot;&gt;&amp;nbsp; &amp;nbsp; }&lt;/div&gt;&lt;div style=&quot;color: rgb(204, 204, 204);&quot;&gt;  &lt;span style=&quot;color: #9cdcfe;&quot;&gt;&amp;nbsp; &amp;nbsp; client&lt;/span&gt;.&lt;span style=&quot;color: #dcdcaa;&quot;&gt;loop&lt;/span&gt;();&lt;/div&gt;&lt;div style=&quot;color: rgb(204, 204, 204);&quot;&gt;  &lt;span style=&quot;color: #dcdcaa;&quot;&gt;&amp;nbsp; &amp;nbsp; get_data&lt;/span&gt;();&lt;/div&gt;&lt;div style=&quot;color: rgb(204, 204, 204);&quot;&gt;  &lt;span style=&quot;color: #9cdcfe;&quot;&gt;&amp;nbsp; &amp;nbsp; client&lt;/span&gt;.&lt;span style=&quot;color: #dcdcaa;&quot;&gt;publish&lt;/span&gt;(&lt;/div&gt;&lt;div style=&quot;color: rgb(204, 204, 204);&quot;&gt;        &lt;span style=&quot;color: #9cdcfe;&quot;&gt;&amp;nbsp; &amp;nbsp; &amp;nbsp; &amp;nbsp; mqtt_topic_flow_rate&lt;/span&gt;,&lt;/div&gt;&lt;div style=&quot;color: rgb(204, 204, 204);&quot;&gt;        &lt;span style=&quot;color: #4ec9b0;&quot;&gt;&amp;nbsp; &amp;nbsp; &amp;nbsp; &amp;nbsp; String&lt;/span&gt;(&lt;span style=&quot;color: #9cdcfe;&quot;&gt;flowRate&lt;/span&gt;).&lt;span style=&quot;color: #dcdcaa;&quot;&gt;c_str&lt;/span&gt;());&lt;/div&gt;&lt;div style=&quot;color: rgb(204, 204, 204);&quot;&gt;  &lt;span style=&quot;color: #9cdcfe;&quot;&gt;&amp;nbsp; &amp;nbsp; client&lt;/span&gt;.&lt;span style=&quot;color: #dcdcaa;&quot;&gt;publish&lt;/span&gt;(&lt;/div&gt;&lt;div style=&quot;color: rgb(204, 204, 204);&quot;&gt;        &lt;span style=&quot;color: #9cdcfe;&quot;&gt;&amp;nbsp; &amp;nbsp; &amp;nbsp; &amp;nbsp; mqtt_topic_flow_total&lt;/span&gt;,&lt;/div&gt;&lt;div style=&quot;&quot;&gt;&lt;font color=&quot;#cccccc&quot;&gt;&amp;nbsp; &amp;nbsp; &amp;nbsp; &amp;nbsp;&amp;nbsp;&lt;/font&gt;&lt;span style=&quot;color: rgb(78, 201, 176);&quot;&gt;String&lt;/span&gt;&lt;font color=&quot;#cccccc&quot;&gt;(&lt;/font&gt;&lt;span style=&quot;color: rgb(156, 220, 254);&quot;&gt;totalLiters&lt;/span&gt;&lt;font color=&quot;#cccccc&quot;&gt;).&lt;/font&gt;&lt;span style=&quot;color: rgb(220, 220, 170);&quot;&gt;c_str&lt;/span&gt;&lt;font color=&quot;#cccccc&quot;&gt;());&lt;/font&gt;&lt;/div&gt;&lt;div style=&quot;color: rgb(204, 204, 204);&quot;&gt;&amp;nbsp;}&lt;/div&gt;&lt;/div&gt;&lt;/div&gt;&lt;/div&gt;&lt;/div&gt;&lt;/div&gt;&lt;/div&gt;&lt;/div&gt;&lt;/div&gt;&lt;/div&gt;&lt;/div&gt;&lt;/div&gt;&lt;/div&gt;" style="rounded=1;whiteSpace=wrap;html=1;strokeWidth=2;fontSize=14;arcSize=4;fillColor=#1f1f1f;strokeColor=none;align=left;fontColor=#333333;labelBorderColor=none;" vertex="1" parent="1">
                    <mxGeometry x="128" y="1300" width="384" height="280" as="geometry"/>
                </mxCell>
                <mxCell id="43" style="edgeStyle=none;html=1;strokeWidth=3;fillColor=#ffe6cc;strokeColor=#d79b00;entryX=1;entryY=0.5;entryDx=0;entryDy=0;" edge="1" parent="1" target="26">
                    <mxGeometry relative="1" as="geometry">
                        <mxPoint x="560" y="1420" as="sourcePoint"/>
                        <mxPoint x="620" y="700" as="targetPoint"/>
                        <Array as="points">
                            <mxPoint x="620" y="1420"/>
                            <mxPoint x="620" y="1110"/>
                            <mxPoint x="620" y="525"/>
                        </Array>
                    </mxGeometry>
                </mxCell>
                <mxCell id="44" value="" style="endArrow=none;html=1;strokeWidth=3;fillColor=#fff2cc;strokeColor=#d6b656;" edge="1" parent="1">
                    <mxGeometry width="50" height="50" relative="1" as="geometry">
                        <mxPoint x="580" y="1420" as="sourcePoint"/>
                        <mxPoint x="260" y="1422" as="targetPoint"/>
                    </mxGeometry>
                </mxCell>
            </root>
        </mxGraphModel>
    </diagram>
</mxfile>